<svg width="55" height="55" viewBox="0 0 55 55" fill="none" xmlns="http://www.w3.org/2000/svg">
<path d="M1 1H54V54H1V1Z" stroke="#5C8692" stroke-width="2"/>
<g clip-path="url(#clip0_1_532)">
<path d="M27.5 22.6074C25.125 22.6074 23.2324 24.5371 23.2324 26.875C23.2324 29.25 25.125 31.1426 27.5 31.1426C29.8379 31.1426 31.7676 29.25 31.7676 26.875C31.7676 24.5371 29.8379 22.6074 27.5 22.6074ZM27.5 29.6582C25.9785 29.6582 24.7168 28.4336 24.7168 26.875C24.7168 25.3535 25.9414 24.1289 27.5 24.1289C29.0215 24.1289 30.2461 25.3535 30.2461 26.875C30.2461 28.4336 29.0215 29.6582 27.5 29.6582ZM32.918 22.459C32.918 21.9023 32.4727 21.457 31.916 21.457C31.3594 21.457 30.9141 21.9023 30.9141 22.459C30.9141 23.0156 31.3594 23.4609 31.916 23.4609C32.4727 23.4609 32.918 23.0156 32.918 22.459ZM35.7383 23.4609C35.6641 22.125 35.3672 20.9375 34.4023 19.9727C33.4375 19.0078 32.25 18.7109 30.9141 18.6367C29.541 18.5625 25.4219 18.5625 24.0488 18.6367C22.7129 18.7109 21.5625 19.0078 20.5605 19.9727C19.5957 20.9375 19.2988 22.125 19.2246 23.4609C19.1504 24.834 19.1504 28.9531 19.2246 30.3262C19.2988 31.6621 19.5957 32.8125 20.5605 33.8145C21.5625 34.7793 22.7129 35.0762 24.0488 35.1504C25.4219 35.2246 29.541 35.2246 30.9141 35.1504C32.25 35.0762 33.4375 34.7793 34.4023 33.8145C35.3672 32.8125 35.6641 31.6621 35.7383 30.3262C35.8125 28.9531 35.8125 24.834 35.7383 23.4609ZM33.957 31.7734C33.6973 32.5156 33.1035 33.0723 32.3984 33.3691C31.2852 33.8145 28.6875 33.7031 27.5 33.7031C26.2754 33.7031 23.6777 33.8145 22.6016 33.3691C21.8594 33.0723 21.3027 32.5156 21.0059 31.7734C20.5605 30.6973 20.6719 28.0996 20.6719 26.875C20.6719 25.6875 20.5605 23.0898 21.0059 21.9766C21.3027 21.2715 21.8594 20.7148 22.6016 20.418C23.6777 19.9727 26.2754 20.084 27.5 20.084C28.6875 20.084 31.2852 19.9727 32.3984 20.418C33.1035 20.6777 33.6602 21.2715 33.957 21.9766C34.4023 23.0898 34.291 25.6875 34.291 26.875C34.291 28.0996 34.4023 30.6973 33.957 31.7734Z" fill="white"/>
</g>
<defs>
<clipPath id="clip0_1_532">
<rect width="17" height="18" fill="white" transform="translate(19 18)"/>
</clipPath>
</defs>
</svg>
