<svg width="55" height="55" viewBox="0 0 55 55" fill="none" xmlns="http://www.w3.org/2000/svg">
<path d="M1 1H54V54H1V1Z" stroke="#5C8692" stroke-width="2"/>
<g clip-path="url(#clip0_1_524)">
<path d="M24.125 34V24.6562H21.2188V34H24.125ZM22.6562 23.4062C23.5938 23.4062 24.3438 22.625 24.3438 21.6875C24.3438 20.7812 23.5938 20.0312 22.6562 20.0312C21.75 20.0312 21 20.7812 21 21.6875C21 22.625 21.75 23.4062 22.6562 23.4062ZM34.9688 34H35V28.875C35 26.375 34.4375 24.4375 31.5 24.4375C30.0938 24.4375 29.1562 25.2188 28.75 25.9375H28.7188V24.6562H25.9375V34H28.8438V29.375C28.8438 28.1562 29.0625 27 30.5625 27C32.0625 27 32.0938 28.375 32.0938 29.4688V34H34.9688Z" fill="white"/>
</g>
<defs>
<clipPath id="clip0_1_524">
<rect width="14" height="14" fill="white" transform="translate(21 20)"/>
</clipPath>
</defs>
</svg>
