<svg width="55" height="55" viewBox="0 0 55 55" fill="none" xmlns="http://www.w3.org/2000/svg">
<path d="M1 1H54V54H1V1Z" stroke="#5C8692" stroke-width="2"/>
<g clip-path="url(#clip0_1_528)">
<path d="M34.3438 23.75C34.9688 23.2812 35.5312 22.7188 35.9688 22.0625C35.4062 22.3125 34.75 22.5 34.0938 22.5625C34.7812 22.1562 35.2812 21.5312 35.5312 20.75C34.9062 21.125 34.1875 21.4062 33.4688 21.5625C32.8438 20.9062 32 20.5312 31.0625 20.5312C29.25 20.5312 27.7812 22 27.7812 23.8125C27.7812 24.0625 27.8125 24.3125 27.875 24.5625C25.1562 24.4062 22.7188 23.0938 21.0938 21.125C20.8125 21.5938 20.6562 22.1562 20.6562 22.7812C20.6562 23.9062 21.2188 24.9062 22.125 25.5C21.5938 25.4688 21.0625 25.3438 20.625 25.0938V25.125C20.625 26.7188 21.75 28.0312 23.25 28.3438C23 28.4062 22.6875 28.4688 22.4062 28.4688C22.1875 28.4688 22 28.4375 21.7812 28.4062C22.1875 29.7188 23.4062 30.6562 24.8438 30.6875C23.7188 31.5625 22.3125 32.0938 20.7812 32.0938C20.5 32.0938 20.25 32.0625 20 32.0312C21.4375 32.9688 23.1562 33.5 25.0312 33.5C31.0625 33.5 34.3438 28.5312 34.3438 24.1875C34.3438 24.0312 34.3438 23.9062 34.3438 23.75Z" fill="white"/>
</g>
<defs>
<clipPath id="clip0_1_528">
<rect width="16" height="14" fill="white" transform="translate(20 20)"/>
</clipPath>
</defs>
</svg>
