<svg width="145" height="26" viewBox="0 0 145 26" fill="none" xmlns="http://www.w3.org/2000/svg">
<path d="M10.9101 9.582C12.569 9.7096 13.9225 10.0195 14.9707 10.5117C16.028 10.9948 16.789 11.5918 17.2539 12.3027C17.7278 13.0046 17.9648 13.7611 17.9648 14.5723C17.9648 15.7298 17.6549 16.7188 17.0351 17.5391C16.4153 18.3503 15.5267 18.9655 14.3691 19.3848C13.2116 19.7949 11.8353 20 10.2402 20C9.8392 20 9.151 19.9863 8.1758 19.959C7.2096 19.9316 6.2343 19.918 5.25 19.918C3.3268 19.918 1.8912 19.9453 0.943298 20V19.4395C1.5631 19.4121 2.0143 19.3392 2.2968 19.2207C2.5794 19.1022 2.7708 18.8835 2.8711 18.5645C2.9804 18.2454 3.0351 17.735 3.0351 17.0332V3.1426C3.0351 2.4408 2.9804 1.9303 2.8711 1.6113C2.7708 1.2923 2.5794 1.0736 2.2968 0.955081C2.0143 0.836591 1.5631 0.763671 0.943298 0.736331V0.175781C1.8821 0.230471 3.2994 0.257811 5.1953 0.257811C5.9427 0.257811 6.7721 0.248701 7.6836 0.230471C8.595 0.212241 9.2285 0.203121 9.584 0.203121C11.0879 0.203121 12.3548 0.389971 13.3847 0.763671C14.4238 1.1283 15.2031 1.6432 15.7226 2.3086C16.2422 2.9648 16.5019 3.7305 16.5019 4.6055C16.5019 5.2982 16.3014 5.9772 15.9004 6.6426C15.4993 7.3079 14.875 7.9004 14.0273 8.4199C13.1888 8.9303 12.1497 9.2995 10.9101 9.5273V9.582ZM8.6953 9.4727C9.9075 9.4727 10.7552 9.0579 11.2383 8.2285C11.7304 7.3991 11.9765 6.2917 11.9765 4.9062C11.9765 3.5026 11.7578 2.459 11.3203 1.7754C10.8828 1.0827 10.1855 0.736331 9.2285 0.736331C8.7272 0.736331 8.3535 0.804691 8.1074 0.941411C7.8704 1.069 7.7063 1.3014 7.6152 1.6387C7.5332 1.9668 7.4922 2.4681 7.4922 3.1426V9.4727H8.6953ZM7.4922 17.0332C7.4922 17.7077 7.5377 18.2044 7.6289 18.5234C7.7291 18.8424 7.9114 19.0612 8.1758 19.1797C8.4401 19.2982 8.8548 19.3574 9.4199 19.3574C12.0175 19.3574 13.3164 17.7214 13.3164 14.4492C13.3164 12.9818 12.9427 11.8652 12.1953 11.0996C11.457 10.334 10.2812 9.9512 8.6679 9.9512H7.4922V17.0332ZM24.1035 11.3457C24.0761 11.6191 24.0625 12.0566 24.0625 12.6582C24.0625 13.8978 24.2356 14.9277 24.582 15.748C24.9284 16.5592 25.375 17.1562 25.9218 17.5391C26.4778 17.9128 27.0703 18.0996 27.6992 18.0996C29.2396 18.0996 30.4746 17.3522 31.4043 15.8574L31.8965 16.0215C31.6595 16.7871 31.2903 17.5026 30.789 18.168C30.2968 18.8242 29.6679 19.362 28.9023 19.7812C28.1458 20.1914 27.2799 20.3965 26.3047 20.3965C25.0195 20.3965 23.8893 20.123 22.914 19.5762C21.9479 19.0293 21.1914 18.1999 20.6445 17.0879C20.1067 15.9668 19.8379 14.5768 19.8379 12.918C19.8379 11.2227 20.1295 9.7962 20.7129 8.6387C21.2962 7.472 22.1028 6.597 23.1328 6.0137C24.1627 5.4303 25.3522 5.1387 26.7011 5.1387C30.2103 5.1387 31.9648 7.2077 31.9648 11.3457H24.1035ZM28.4375 10.8125C28.4648 9.3542 28.3144 8.1419 27.9863 7.1758C27.6673 6.2096 27.1797 5.7266 26.5234 5.7266C25.858 5.7266 25.3021 6.1413 24.8554 6.9707C24.4179 7.791 24.1491 9.0716 24.0488 10.8125H28.4375ZM41.33 8.1875C41.33 7.4128 41.1432 6.8021 40.7695 6.3555C40.4049 5.9089 39.8307 5.6855 39.0468 5.6855C38.6823 5.6855 38.3177 5.7448 37.9531 5.8633C37.5885 5.9727 37.2877 6.1413 37.0508 6.3691C37.5703 6.5423 37.9759 6.8158 38.2675 7.1895C38.5592 7.554 38.705 8.0143 38.705 8.5703C38.705 8.9531 38.6093 9.2995 38.4179 9.6094C38.2356 9.9102 37.9713 10.1517 37.625 10.334C37.2786 10.5072 36.8821 10.5938 36.4355 10.5938C35.834 10.5938 35.3509 10.3887 34.9863 9.9785C34.6308 9.5684 34.4531 9.0534 34.4531 8.4336C34.4531 7.4674 34.9726 6.6836 36.0117 6.082C37.151 5.4531 38.5729 5.1387 40.2773 5.1387C42.1914 5.1387 43.554 5.5579 44.3652 6.3965C44.7571 6.7884 45.0215 7.276 45.1582 7.8594C45.2949 8.4427 45.3633 9.2585 45.3633 10.3066V17.9219C45.3633 18.3776 45.4043 18.7012 45.4863 18.8926C45.5774 19.0749 45.7324 19.166 45.9511 19.166C46.2519 19.166 46.5983 19.0065 46.9902 18.6875L47.2773 19.166C46.8489 19.5215 46.3841 19.7812 45.8828 19.9453C45.3815 20.1094 44.7799 20.1914 44.0781 20.1914C43.1302 20.1914 42.4466 19.9818 42.0273 19.5625C41.608 19.1432 41.3984 18.5964 41.3984 17.9219C40.9427 18.6784 40.3457 19.248 39.6074 19.6309C38.8691 20.0046 38.0807 20.1914 37.2422 20.1914C36.1758 20.1914 35.319 19.9134 34.6718 19.3574C34.0338 18.7923 33.7148 18.0085 33.7148 17.0059C33.7148 16.0306 34.0338 15.224 34.6718 14.5859C35.3099 13.9479 36.2988 13.3828 37.6386 12.8906C37.7845 12.8359 38.2584 12.6582 39.0605 12.3574C39.8626 12.0475 40.4414 11.7331 40.7968 11.4141C41.1523 11.0951 41.33 10.7441 41.33 10.3613V8.1875ZM41.33 11.5098C41.2116 11.7103 41.0156 11.9199 40.7422 12.1387C40.4778 12.3483 40.095 12.6081 39.5937 12.918C39.0013 13.3281 38.5364 13.793 38.1992 14.3125C37.8619 14.8229 37.6933 15.4609 37.6933 16.2266C37.6933 16.9557 37.8528 17.5026 38.1718 17.8672C38.4909 18.2227 38.9101 18.4004 39.4297 18.4004C40.1679 18.4004 40.8014 18.0176 41.33 17.252V11.5098ZM62.043 16.9512C62.043 17.8171 62.175 18.446 62.439 18.8379C62.713 19.2207 63.178 19.4121 63.834 19.4121V20C63.251 19.9453 62.672 19.918 62.098 19.918C60.457 19.918 59.094 20.0501 58.01 20.3145V17.7852C57.162 19.526 55.658 20.3965 53.498 20.3965C52.1035 20.3965 51.0872 20.0319 50.4492 19.3027C50.1393 18.9564 49.916 18.4961 49.7793 17.9219C49.6517 17.3477 49.5879 16.5957 49.5879 15.666V8.5703C49.5879 7.7135 49.4511 7.0892 49.1777 6.6973C48.9134 6.3053 48.4531 6.1094 47.7968 6.1094V5.5215C48.3893 5.5762 48.9681 5.6035 49.5332 5.6035C51.1647 5.6035 52.5273 5.4759 53.6211 5.2207V16.8145C53.6211 17.5892 53.735 18.1771 53.9629 18.5781C54.1998 18.9701 54.6419 19.166 55.289 19.166C55.781 19.166 56.232 19.0247 56.643 18.7422C57.062 18.4505 57.395 18.0586 57.641 17.5664C57.887 17.0651 58.01 16.5137 58.01 15.9121V8.5703C58.01 7.7135 57.873 7.0892 57.6 6.6973C57.335 6.3053 56.875 6.1094 56.219 6.1094V5.5215C56.811 5.5762 57.39 5.6035 57.955 5.6035C59.587 5.6035 60.949 5.4759 62.043 5.2207V16.9512ZM74.088 5.5488V6.1094H70.779V17.4023C70.779 17.9583 70.88 18.3548 71.08 18.5918C71.281 18.8197 71.59 18.9336 72.01 18.9336C72.803 18.9336 73.436 18.373 73.91 17.252L74.389 17.5117C73.687 19.4349 72.411 20.3965 70.561 20.3965C69.33 20.3965 68.396 20.0775 67.758 19.4395C67.366 19.0566 67.097 18.5736 66.951 17.9902C66.814 17.3978 66.746 16.582 66.746 15.543V6.1094H64.395V5.5488H66.746V1.8301C68.286 1.8301 69.631 1.5293 70.779 0.927731V5.5488H74.088ZM83.781 5.5215C84.656 5.5762 85.563 5.6035 86.502 5.6035C87.441 5.6035 88.161 5.5762 88.662 5.5215V6.082C88.27 6.1823 87.915 6.4147 87.596 6.7793C87.286 7.1439 86.994 7.7135 86.721 8.4883L81.717 22.5703C81.343 23.5456 80.933 24.2109 80.486 24.5664C79.939 25.0312 79.124 25.2637 78.039 25.2637C77.556 25.2637 77.077 25.1816 76.603 25.0176C76.139 24.8626 75.751 24.6165 75.441 24.2793C75.141 23.9421 74.99 23.5228 74.99 23.0215C74.99 22.4473 75.195 21.987 75.605 21.6406C76.016 21.2943 76.558 21.1211 77.232 21.1211C77.861 21.1211 78.367 21.276 78.75 21.5859C79.142 21.8958 79.338 22.3288 79.338 22.8848C79.338 23.2676 79.21 23.623 78.955 23.9512C78.709 24.2884 78.367 24.5391 77.93 24.7031C78.066 24.7214 78.281 24.7305 78.572 24.7305C79.739 24.7305 80.591 23.9922 81.129 22.5156L81.58 21.1758L75.633 7.6816C75.341 7.0345 75.049 6.6107 74.758 6.4102C74.475 6.2096 74.188 6.1094 73.896 6.1094V5.5215C75.127 5.6309 76.408 5.6855 77.738 5.6855C78.841 5.6855 80.14 5.6309 81.635 5.5215V6.1094C81.234 6.1094 80.919 6.123 80.691 6.1504C80.464 6.1777 80.268 6.2461 80.103 6.3555C79.949 6.4648 79.871 6.6426 79.871 6.8887C79.871 7.1074 79.935 7.3717 80.062 7.6816L83.494 15.9531L85.408 10.5664C85.709 9.6732 85.859 8.9258 85.859 8.3242C85.859 7.6133 85.677 7.0755 85.312 6.7109C84.948 6.3372 84.437 6.1276 83.781 6.082V5.5215ZM95.32 7.7363C96.168 6.0046 97.699 5.1387 99.914 5.1387C100.68 5.1387 101.304 5.2298 101.787 5.4121C102.279 5.5944 102.68 5.8633 102.99 6.2188C103.3 6.5742 103.523 7.0345 103.66 7.5996C103.797 8.1647 103.865 8.9212 103.865 9.8691V17.4023C103.865 17.9219 103.924 18.3275 104.043 18.6191C104.161 18.9108 104.348 19.1159 104.603 19.2344C104.859 19.3529 105.21 19.4121 105.656 19.4121V20C103.797 19.9271 102.566 19.8906 101.965 19.8906C101.391 19.8906 100.174 19.9271 98.314 20V19.4121C98.697 19.4121 98.998 19.3529 99.217 19.2344C99.436 19.1159 99.59 18.9108 99.682 18.6191C99.782 18.3275 99.832 17.9219 99.832 17.4023V8.6934C99.832 7.9277 99.704 7.349 99.449 6.957C99.203 6.5651 98.752 6.3691 98.096 6.3691C97.585 6.3691 97.116 6.5104 96.687 6.793C96.268 7.0755 95.936 7.4674 95.689 7.9688C95.443 8.4609 95.32 9.0078 95.32 9.6094V17.4023C95.32 17.9219 95.37 18.3275 95.471 18.6191C95.571 18.9108 95.73 19.1159 95.949 19.2344C96.168 19.3529 96.464 19.4121 96.838 19.4121V20C95.124 19.9271 93.967 19.8906 93.365 19.8906C92.791 19.8906 91.501 19.9271 89.496 20V19.4121C89.943 19.4121 90.294 19.3529 90.549 19.2344C90.813 19.1159 91 18.9108 91.109 18.6191C91.228 18.3275 91.287 17.9219 91.287 17.4023V8.5703C91.287 7.7044 91.155 7.0801 90.891 6.6973C90.626 6.3053 90.161 6.1094 89.496 6.1094V5.5215C90.089 5.5762 90.667 5.6035 91.232 5.6035C92.882 5.6035 94.245 5.4759 95.32 5.2207V7.7363ZM111.33 11.3457C111.303 11.6191 111.289 12.0566 111.289 12.6582C111.289 13.8978 111.462 14.9277 111.809 15.748C112.155 16.5592 112.602 17.1562 113.148 17.5391C113.704 17.9128 114.297 18.0996 114.926 18.0996C116.466 18.0996 117.701 17.3522 118.631 15.8574L119.123 16.0215C118.886 16.7871 118.517 17.5026 118.016 18.168C117.523 18.8242 116.895 19.362 116.129 19.7812C115.372 20.1914 114.506 20.3965 113.531 20.3965C112.246 20.3965 111.116 20.123 110.141 19.5762C109.174 19.0293 108.418 18.1999 107.871 17.0879C107.333 15.9668 107.064 14.5768 107.064 12.918C107.064 11.2227 107.356 9.7962 107.939 8.6387C108.523 7.472 109.329 6.597 110.359 6.0137C111.389 5.4303 112.579 5.1387 113.928 5.1387C117.437 5.1387 119.191 7.2077 119.191 11.3457H111.33ZM115.664 10.8125C115.691 9.3542 115.541 8.1419 115.213 7.1758C114.894 6.2096 114.406 5.7266 113.75 5.7266C113.085 5.7266 112.529 6.1413 112.082 6.9707C111.645 7.791 111.376 9.0716 111.275 10.8125H115.664ZM122.117 14.5996C122.299 16.2129 122.691 17.4753 123.293 18.3867C123.904 19.2982 124.765 19.7539 125.877 19.7539C126.424 19.7539 126.889 19.5898 127.271 19.2617C127.663 18.9245 127.859 18.4232 127.859 17.7578C127.859 17.2383 127.741 16.7734 127.504 16.3633C127.276 15.9531 126.984 15.5885 126.629 15.2695C126.273 14.9505 125.74 14.513 125.029 13.957C124.163 13.2552 123.512 12.7038 123.074 12.3027C122.646 11.9017 122.277 11.4277 121.967 10.8809C121.657 10.3249 121.502 9.696 121.502 8.9941C121.502 8.1921 121.721 7.4993 122.158 6.916C122.596 6.3327 123.184 5.8906 123.922 5.5898C124.66 5.2891 125.462 5.1387 126.328 5.1387C127.039 5.1387 127.691 5.2253 128.283 5.3984C128.876 5.5716 129.34 5.7721 129.678 6C129.86 6.1276 130.024 6.1914 130.17 6.1914C130.516 6.1914 130.735 5.8496 130.826 5.166H131.441C131.368 6.1048 131.332 7.7454 131.332 10.0879H130.717C130.553 8.8665 130.184 7.8411 129.609 7.0117C129.044 6.1732 128.219 5.7539 127.135 5.7539C126.579 5.7539 126.123 5.9134 125.768 6.2324C125.412 6.5514 125.234 6.9889 125.234 7.5449C125.234 8.1738 125.444 8.7161 125.863 9.1719C126.283 9.6276 126.788 10.0651 127.381 10.4844C127.973 10.9036 128.406 11.2181 128.68 11.4277C129.445 12.002 130.051 12.5033 130.498 12.9316C130.954 13.36 131.323 13.8477 131.605 14.3945C131.888 14.9323 132.029 15.5521 132.029 16.2539C132.029 17.0742 131.788 17.7988 131.305 18.4277C130.831 19.0566 130.188 19.5443 129.377 19.8906C128.566 20.2279 127.677 20.3965 126.711 20.3965C125.717 20.3965 124.852 20.2005 124.113 19.8086C123.557 19.526 123.12 19.3301 122.801 19.2207C122.746 19.2025 122.7 19.1934 122.664 19.1934C122.363 19.1934 122.145 19.526 122.008 20.1914H121.393C121.465 19.125 121.502 17.2611 121.502 14.5996H122.117ZM135.051 14.5996C135.233 16.2129 135.625 17.4753 136.227 18.3867C136.837 19.2982 137.699 19.7539 138.811 19.7539C139.357 19.7539 139.822 19.5898 140.205 19.2617C140.597 18.9245 140.793 18.4232 140.793 17.7578C140.793 17.2383 140.674 16.7734 140.437 16.3633C140.21 15.9531 139.918 15.5885 139.562 15.2695C139.207 14.9505 138.674 14.513 137.963 13.957C137.097 13.2552 136.445 12.7038 136.008 12.3027C135.579 11.9017 135.21 11.4277 134.9 10.8809C134.59 10.3249 134.436 9.696 134.436 8.9941C134.436 8.1921 134.654 7.4993 135.092 6.916C135.529 6.3327 136.117 5.8906 136.855 5.5898C137.594 5.2891 138.396 5.1387 139.262 5.1387C139.973 5.1387 140.624 5.2253 141.217 5.3984C141.809 5.5716 142.274 5.7721 142.611 6C142.794 6.1276 142.958 6.1914 143.103 6.1914C143.45 6.1914 143.669 5.8496 143.76 5.166H144.375C144.302 6.1048 144.266 7.7454 144.266 10.0879H143.65C143.486 8.8665 143.117 7.8411 142.543 7.0117C141.978 6.1732 141.153 5.7539 140.068 5.7539C139.512 5.7539 139.057 5.9134 138.701 6.2324C138.346 6.5514 138.168 6.9889 138.168 7.5449C138.168 8.1738 138.378 8.7161 138.797 9.1719C139.216 9.6276 139.722 10.0651 140.314 10.4844C140.907 10.9036 141.34 11.2181 141.613 11.4277C142.379 12.002 142.985 12.5033 143.432 12.9316C143.887 13.36 144.256 13.8477 144.539 14.3945C144.822 14.9323 144.963 15.5521 144.963 16.2539C144.963 17.0742 144.721 17.7988 144.238 18.4277C143.764 19.0566 143.122 19.5443 142.311 19.8906C141.499 20.2279 140.611 20.3965 139.645 20.3965C138.651 20.3965 137.785 20.2005 137.047 19.8086C136.491 19.526 136.053 19.3301 135.734 19.2207C135.68 19.2025 135.634 19.1934 135.598 19.1934C135.297 19.1934 135.078 19.526 134.941 20.1914H134.326C134.399 19.125 134.436 17.2611 134.436 14.5996H135.051Z" fill="#141414"/>
</svg>
