<svg width="194" height="173" viewBox="0 0 194 173" fill="none" xmlns="http://www.w3.org/2000/svg">
<path d="M0 0H194V173H0V0Z" fill="#1E2C30"/>
<path d="M48.3688 34.7475V33.8025H52.8688V34.7475H48.3688ZM65.148 39.225C64.388 39.225 63.703 39.0925 63.093 38.8275C62.483 38.5625 61.963 38.185 61.533 37.695C61.108 37.205 60.783 36.615 60.558 35.925C60.333 35.23 60.2205 34.455 60.2205 33.6C60.2205 32.47 60.4155 31.485 60.8055 30.645C61.2005 29.8 61.7655 29.145 62.5005 28.68C63.2355 28.215 64.118 27.9825 65.148 27.9825C66.298 27.9825 67.233 28.2525 67.953 28.7925C68.678 29.3275 69.183 30.0475 69.468 30.9525L68.358 31.2225C68.123 30.5625 67.7355 30.035 67.1955 29.64C66.6605 29.245 65.993 29.0475 65.193 29.0475C64.348 29.0425 63.6455 29.2325 63.0855 29.6175C62.5255 29.9975 62.103 30.5325 61.818 31.2225C61.538 31.9075 61.3955 32.7 61.3905 33.6C61.3855 34.5 61.523 35.2925 61.803 35.9775C62.088 36.6575 62.513 37.1925 63.078 37.5825C63.643 37.9675 64.348 38.1625 65.193 38.1675C65.968 38.1675 66.608 38.0175 67.113 37.7175C67.618 37.4175 68.0005 36.9875 68.2605 36.4275C68.5255 35.8675 68.6755 35.205 68.7105 34.44H66.2205V33.495H69.8655C69.8805 33.61 69.888 33.7325 69.888 33.8625C69.893 33.9875 69.8955 34.0775 69.8955 34.1325C69.8955 35.1075 69.7205 35.98 69.3705 36.75C69.0205 37.515 68.493 38.12 67.788 38.565C67.088 39.005 66.208 39.225 65.148 39.225ZM72.8967 39V28.2H79.6467V29.2575H73.9992V32.9925H78.7467V34.05H73.9992V37.9425H79.6467V39H72.8967ZM85.8239 39V29.2575H82.0514V28.2H90.6989V29.2575H86.9264V39H85.8239ZM97.4504 39V28.2H103.653V29.3025H98.5529V33.0525H102.753V34.1475H98.5529V39H97.4504ZM106.659 39V28.2H107.761V37.9425H112.891V39H106.659ZM114.92 39L118.64 28.2H120.103L123.823 39H122.675L119.143 28.815H119.578L116.068 39H114.92ZM116.578 36.3825V35.3475H122.158V36.3825H116.578ZM128.656 39V29.2575H124.883V28.2H133.531V29.2575H129.758V39H128.656ZM140.132 34.7475V33.8025H144.632V34.7475H140.132Z" fill="white"/>
<path d="M54.1153 142V129.04H58.0483C58.1863 129.04 58.4203 129.043 58.7503 129.049C59.0863 129.055 59.4073 129.079 59.7133 129.121C60.6973 129.259 61.5193 129.625 62.1793 130.219C62.8393 130.813 63.3343 131.569 63.6643 132.487C63.9943 133.405 64.1593 134.416 64.1593 135.52C64.1593 136.624 63.9943 137.635 63.6643 138.553C63.3343 139.471 62.8393 140.227 62.1793 140.821C61.5193 141.415 60.6973 141.781 59.7133 141.919C59.4133 141.955 59.0923 141.979 58.7503 141.991C58.4083 141.997 58.1743 142 58.0483 142H54.1153ZM55.4833 140.731H58.0483C58.2943 140.731 58.5583 140.725 58.8403 140.713C59.1283 140.695 59.3743 140.665 59.5783 140.623C60.3343 140.491 60.9433 140.185 61.4053 139.705C61.8733 139.225 62.2153 138.625 62.4313 137.905C62.6473 137.179 62.7553 136.384 62.7553 135.52C62.7553 134.65 62.6473 133.852 62.4313 133.126C62.2153 132.4 61.8733 131.8 61.4053 131.326C60.9373 130.852 60.3283 130.549 59.5783 130.417C59.3743 130.375 59.1253 130.348 58.8313 130.336C58.5433 130.318 58.2823 130.309 58.0483 130.309H55.4833V140.731ZM68.189 130.435V128.95H69.512V130.435H68.189ZM68.189 142V132.28H69.512V142H68.189ZM77.6372 142.261C76.4972 142.261 75.5582 142.015 74.8202 141.523C74.0882 141.031 73.6382 140.347 73.4702 139.471L74.8202 139.246C74.9642 139.798 75.2912 140.239 75.8012 140.569C76.3172 140.893 76.9532 141.055 77.7092 141.055C78.4472 141.055 79.0292 140.902 79.4552 140.596C79.8812 140.284 80.0942 139.861 80.0942 139.327C80.0942 139.027 80.0252 138.784 79.8872 138.598C79.7552 138.406 79.4822 138.229 79.0682 138.067C78.6542 137.905 78.0362 137.713 77.2142 137.491C76.3322 137.251 75.6422 137.011 75.1442 136.771C74.6462 136.531 74.2922 136.255 74.0822 135.943C73.8722 135.625 73.7672 135.238 73.7672 134.782C73.7672 134.23 73.9232 133.747 74.2352 133.333C74.5472 132.913 74.9792 132.589 75.5312 132.361C76.0832 132.127 76.7252 132.01 77.4572 132.01C78.1892 132.01 78.8432 132.13 79.4192 132.37C80.0012 132.604 80.4692 132.934 80.8232 133.36C81.1772 133.786 81.3872 134.281 81.4532 134.845L80.1032 135.088C80.0132 134.518 79.7282 134.068 79.2482 133.738C78.7742 133.402 78.1712 133.228 77.4392 133.216C76.7492 133.198 76.1882 133.33 75.7562 133.612C75.3242 133.888 75.1082 134.257 75.1082 134.719C75.1082 134.977 75.1862 135.199 75.3422 135.385C75.4982 135.565 75.7802 135.736 76.1882 135.898C76.6022 136.06 77.1902 136.237 77.9522 136.429C78.8462 136.657 79.5482 136.897 80.0582 137.149C80.5682 137.401 80.9312 137.698 81.1472 138.04C81.3632 138.382 81.4712 138.805 81.4712 139.309C81.4712 140.227 81.1292 140.95 80.4452 141.478C79.7672 142 78.8312 142.261 77.6372 142.261ZM89.2992 142.27C88.3212 142.27 87.4932 142.051 86.8152 141.613C86.1372 141.175 85.6212 140.572 85.2672 139.804C84.9192 139.03 84.7392 138.142 84.7272 137.14C84.7392 136.12 84.9252 135.226 85.2852 134.458C85.6452 133.684 86.1642 133.084 86.8422 132.658C87.5202 132.226 88.3422 132.01 89.3082 132.01C90.2922 132.01 91.1472 132.25 91.8732 132.73C92.6052 133.21 93.1062 133.867 93.3762 134.701L92.0802 135.115C91.8522 134.533 91.4892 134.083 90.9912 133.765C90.4992 133.441 89.9352 133.279 89.2992 133.279C88.5852 133.279 87.9942 133.444 87.5262 133.774C87.0582 134.098 86.7102 134.551 86.4822 135.133C86.2542 135.715 86.1372 136.384 86.1312 137.14C86.1432 138.304 86.4132 139.24 86.9412 139.948C87.4692 140.65 88.2552 141.001 89.2992 141.001C89.9592 141.001 90.5202 140.851 90.9822 140.551C91.4502 140.245 91.8042 139.801 92.0442 139.219L93.3762 139.615C93.0162 140.479 92.4882 141.139 91.7922 141.595C91.0962 142.045 90.2652 142.27 89.2992 142.27ZM100.829 142.27C99.8634 142.27 99.0384 142.051 98.3544 141.613C97.6704 141.175 97.1454 140.569 96.7794 139.795C96.4134 139.021 96.2304 138.133 96.2304 137.131C96.2304 136.111 96.4164 135.217 96.7884 134.449C97.1604 133.681 97.6884 133.084 98.3724 132.658C99.0624 132.226 99.8814 132.01 100.829 132.01C101.801 132.01 102.629 132.229 103.313 132.667C104.003 133.099 104.528 133.702 104.888 134.476C105.254 135.244 105.437 136.129 105.437 137.131C105.437 138.151 105.254 139.048 104.888 139.822C104.522 140.59 103.994 141.19 103.304 141.622C102.614 142.054 101.789 142.27 100.829 142.27ZM100.829 141.001C101.909 141.001 102.713 140.644 103.241 139.93C103.769 139.21 104.033 138.277 104.033 137.131C104.033 135.955 103.766 135.019 103.232 134.323C102.704 133.627 101.903 133.279 100.829 133.279C100.103 133.279 99.5034 133.444 99.0294 133.774C98.5614 134.098 98.2104 134.551 97.9764 135.133C97.7484 135.709 97.6344 136.375 97.6344 137.131C97.6344 138.301 97.9044 139.24 98.4444 139.948C98.9844 140.65 99.7794 141.001 100.829 141.001ZM112.94 142.243C112.358 142.243 111.848 142.153 111.41 141.973C110.978 141.793 110.609 141.55 110.303 141.244C110.003 140.938 109.76 140.59 109.574 140.2C109.388 139.804 109.253 139.387 109.169 138.949C109.085 138.505 109.043 138.064 109.043 137.626V132.28H110.375V137.239C110.375 137.773 110.426 138.268 110.528 138.724C110.63 139.18 110.792 139.579 111.014 139.921C111.242 140.257 111.533 140.518 111.887 140.704C112.247 140.89 112.682 140.983 113.192 140.983C113.66 140.983 114.071 140.902 114.425 140.74C114.785 140.578 115.085 140.347 115.325 140.047C115.571 139.741 115.757 139.372 115.883 138.94C116.009 138.502 116.072 138.01 116.072 137.464L117.008 137.671C117.008 138.667 116.834 139.504 116.486 140.182C116.138 140.86 115.658 141.373 115.046 141.721C114.434 142.069 113.732 142.243 112.94 142.243ZM116.207 142V139.606H116.072V132.28H117.395V142H116.207ZM128.73 142V137.041C128.73 136.501 128.679 136.006 128.577 135.556C128.475 135.1 128.31 134.704 128.082 134.368C127.86 134.026 127.569 133.762 127.209 133.576C126.855 133.39 126.423 133.297 125.913 133.297C125.445 133.297 125.031 133.378 124.671 133.54C124.317 133.702 124.017 133.936 123.771 134.242C123.531 134.542 123.348 134.908 123.222 135.34C123.096 135.772 123.033 136.264 123.033 136.816L122.097 136.609C122.097 135.613 122.271 134.776 122.619 134.098C122.967 133.42 123.447 132.907 124.059 132.559C124.671 132.211 125.373 132.037 126.165 132.037C126.747 132.037 127.254 132.127 127.686 132.307C128.124 132.487 128.493 132.73 128.793 133.036C129.099 133.342 129.345 133.693 129.531 134.089C129.717 134.479 129.852 134.896 129.936 135.34C130.02 135.778 130.062 136.216 130.062 136.654V142H128.73ZM121.701 142V132.28H122.898V134.674H123.033V142H121.701ZM139.49 142C138.944 142.114 138.404 142.159 137.87 142.135C137.342 142.111 136.868 141.997 136.448 141.793C136.034 141.589 135.719 141.271 135.503 140.839C135.329 140.479 135.233 140.116 135.215 139.75C135.203 139.378 135.197 138.955 135.197 138.481V129.58H136.511V138.427C136.511 138.835 136.514 139.177 136.52 139.453C136.532 139.723 136.595 139.963 136.709 140.173C136.925 140.575 137.267 140.815 137.735 140.893C138.209 140.971 138.794 140.953 139.49 140.839V142ZM133.118 133.414V132.28H139.49V133.414H133.118Z" fill="white"/>
<path d="M46.6943 103.975C44.2677 103.975 42.0252 103.477 39.9668 102.48C37.9085 101.483 36.1535 100.107 34.7018 98.3525C33.2502 96.5975 32.2102 94.5825 31.5818 92.3075L36.1643 91.0725C36.576 92.7625 37.3235 94.225 38.4068 95.46C39.4902 96.6733 40.7577 97.6158 42.2093 98.2875C43.6827 98.9592 45.221 99.295 46.8243 99.295C48.9043 99.295 50.7677 98.7967 52.4143 97.8C54.0827 96.7817 55.4043 95.4383 56.3793 93.77C57.3543 92.1017 57.8418 90.2708 57.8418 88.2775C57.8418 86.2192 57.3327 84.3667 56.3143 82.72C55.296 81.0517 53.9527 79.73 52.2843 78.755C50.616 77.78 48.796 77.2925 46.8243 77.2925C44.6143 77.2925 42.7077 77.78 41.1043 78.755C39.501 79.7083 38.2227 80.9108 37.2693 82.3625L32.9143 80.5425L34.3443 56.2H59.3368V60.7825H36.4568L38.8293 58.54L37.5618 79.3075L36.3593 77.715C37.7027 76.1767 39.3277 74.9742 41.2343 74.1075C43.141 73.2408 45.1452 72.8075 47.2468 72.8075C50.1285 72.8075 52.7285 73.5008 55.0468 74.8875C57.3652 76.2525 59.2068 78.105 60.5718 80.445C61.9368 82.785 62.6193 85.3958 62.6193 88.2775C62.6193 91.1375 61.8935 93.7592 60.4418 96.1425C58.9902 98.5042 57.0618 100.4 54.6568 101.83C52.2518 103.26 49.5977 103.975 46.6943 103.975ZM86.4515 103.975C83.5698 103.975 80.9698 103.303 78.6515 101.96C76.3548 100.617 74.5348 98.7967 73.1915 96.5C71.8481 94.1817 71.1765 91.5817 71.1765 88.7V70.5C71.1765 67.6183 71.8481 65.0292 73.1915 62.7325C74.5348 60.4142 76.3548 58.5833 78.6515 57.24C80.9698 55.8967 83.5698 55.225 86.4515 55.225C89.3331 55.225 91.9223 55.8967 94.219 57.24C96.5373 58.5833 98.3681 60.4142 99.7115 62.7325C101.055 65.0292 101.726 67.6183 101.726 70.5V88.7C101.726 91.5817 101.055 94.1817 99.7115 96.5C98.3681 98.7967 96.5373 100.617 94.219 101.96C91.9223 103.303 89.3331 103.975 86.4515 103.975ZM86.4515 99.36C88.3798 99.36 90.1348 98.8942 91.7165 97.9625C93.2981 97.0092 94.5548 95.7417 95.4865 94.16C96.4181 92.5783 96.884 90.8342 96.884 88.9275V70.2725C96.884 68.3442 96.4181 66.5892 95.4865 65.0075C94.5548 63.4258 93.2981 62.1692 91.7165 61.2375C90.1348 60.2842 88.3798 59.8075 86.4515 59.8075C84.5231 59.8075 82.7681 60.2842 81.1865 61.2375C79.6048 62.1692 78.3481 63.4258 77.4165 65.0075C76.4848 66.5892 76.019 68.3442 76.019 70.2725V88.9275C76.019 90.8342 76.4848 92.5783 77.4165 94.16C78.3481 95.7417 79.6048 97.0092 81.1865 97.9625C82.7681 98.8942 84.5231 99.36 86.4515 99.36ZM116.179 103L112.929 99.75L156.577 56.2L159.827 59.4175L116.179 103ZM150.077 103.975C147.932 103.975 145.971 103.455 144.194 102.415C142.439 101.353 141.031 99.945 139.969 98.19C138.908 96.4133 138.377 94.4417 138.377 92.275C138.377 90.1517 138.918 88.2017 140.002 86.425C141.085 84.6483 142.515 83.2292 144.292 82.1675C146.068 81.1058 147.997 80.575 150.077 80.575C152.222 80.575 154.183 81.1058 155.959 82.1675C157.736 83.2075 159.144 84.6158 160.184 86.3925C161.246 88.1475 161.777 90.1083 161.777 92.275C161.777 94.4417 161.246 96.4133 160.184 98.19C159.144 99.945 157.736 101.353 155.959 102.415C154.183 103.455 152.222 103.975 150.077 103.975ZM150.077 99.6525C151.398 99.6525 152.623 99.3167 153.749 98.645C154.876 97.9733 155.775 97.085 156.447 95.98C157.118 94.8533 157.454 93.6183 157.454 92.275C157.454 90.9317 157.118 89.7075 156.447 88.6025C155.775 87.4758 154.876 86.5767 153.749 85.905C152.623 85.2333 151.398 84.8975 150.077 84.8975C148.733 84.8975 147.498 85.2333 146.372 85.905C145.267 86.5767 144.368 87.4758 143.674 88.6025C143.003 89.7075 142.667 90.9317 142.667 92.275C142.667 93.6183 143.003 94.8533 143.674 95.98C144.368 97.085 145.267 97.9733 146.372 98.645C147.498 99.3167 148.733 99.6525 150.077 99.6525ZM122.679 78.625C120.534 78.625 118.573 78.105 116.797 77.065C115.02 76.0033 113.601 74.595 112.539 72.84C111.499 71.0633 110.979 69.0917 110.979 66.925C110.979 64.8017 111.521 62.8517 112.604 61.075C113.688 59.2983 115.118 57.8792 116.894 56.8175C118.671 55.7558 120.599 55.225 122.679 55.225C124.824 55.225 126.774 55.7558 128.529 56.8175C130.306 57.8575 131.725 59.2658 132.787 61.0425C133.848 62.7975 134.379 64.7583 134.379 66.925C134.379 69.0917 133.848 71.0633 132.787 72.84C131.725 74.595 130.306 76.0033 128.529 77.065C126.774 78.105 124.824 78.625 122.679 78.625ZM122.679 74.3025C124.023 74.3025 125.247 73.9667 126.352 73.295C127.478 72.6233 128.378 71.735 129.049 70.63C129.721 69.5033 130.057 68.2683 130.057 66.925C130.057 65.5817 129.721 64.3575 129.049 63.2525C128.378 62.1258 127.478 61.2267 126.352 60.555C125.247 59.8833 124.023 59.5475 122.679 59.5475C121.336 59.5475 120.101 59.8833 118.974 60.555C117.869 61.2267 116.981 62.1258 116.309 63.2525C115.638 64.3575 115.302 65.5817 115.302 66.925C115.302 68.2683 115.638 69.5033 116.309 70.63C116.981 71.735 117.869 72.6233 118.974 73.295C120.101 73.9667 121.336 74.3025 122.679 74.3025Z" fill="white"/>
</svg>
