<svg width="41" height="48" viewBox="0 0 41 48" fill="none" xmlns="http://www.w3.org/2000/svg">
<path d="M37.584 32.7618V38.4018C37.5861 38.9253 37.4885 39.4435 37.2979 39.9232C37.1074 40.403 36.8277 40.8337 36.4772 41.1875C36.1266 41.5415 35.7127 41.8111 35.2621 41.9788C34.8112 42.1465 34.3337 42.2088 33.8599 42.1618C28.6031 41.5331 23.5535 39.5563 19.1169 36.3902C14.9893 33.5036 11.4898 29.6524 8.86697 25.1102C5.97985 20.2056 4.18313 14.6216 3.62239 8.8105C3.57969 8.29062 3.63585 7.76666 3.78724 7.27196C3.93865 6.77726 4.18198 6.32267 4.50178 5.93716C4.82157 5.55163 5.21081 5.24359 5.64469 5.03269C6.07859 4.82178 6.54763 4.7126 7.02197 4.7121H12.147C12.976 4.70313 13.7798 5.02621 14.4084 5.62115C15.037 6.21608 15.4476 7.04226 15.5636 7.9457C15.7799 9.75063 16.1811 11.5228 16.7595 13.2285C16.9893 13.9014 17.0391 14.6327 16.9028 15.3358C16.7666 16.0388 16.45 16.6842 15.9907 17.1953L13.8211 19.583C16.253 24.2895 19.7943 28.1866 24.0711 30.863L26.2407 28.4754C26.7052 27.9698 27.2917 27.6215 27.9304 27.4716C28.5693 27.3216 29.2339 27.3763 29.8453 27.6294C31.3952 28.2657 33.0057 28.7073 34.6457 28.9454C35.4756 29.0741 36.2334 29.5342 36.7753 30.2379C37.317 30.9415 37.6049 31.8398 37.584 32.7618Z" stroke="#7A9CA5" stroke-width="2" stroke-linecap="round" stroke-linejoin="round"/>
</svg>
