<svg width="49" height="73" viewBox="0 0 49 73" fill="none" xmlns="http://www.w3.org/2000/svg">
<g clip-path="url(#clip0_17533_3)">
<path d="M30.3966 43.7314C29.9944 43.28 29.3025 43.242 28.8511 43.6442C28.1916 44.2334 26.5378 44.8268 24.33 44.8268C22.1208 44.8268 20.467 44.232 19.8089 43.6442C19.3575 43.242 18.6656 43.28 18.2635 43.7314C17.8613 44.1814 17.8992 44.8733 18.3506 45.2768C19.5699 46.3667 21.8058 47.0164 24.33 47.0164C26.8556 47.0164 29.0902 46.3667 30.3094 45.2768C30.7608 44.8733 30.8002 44.1828 30.3966 43.7314Z" fill="white"/>
<path d="M21.7411 34.0844C21.3333 33.6373 20.6414 33.6063 20.1956 34.0141C19.8792 34.3024 19.0003 34.6132 17.8177 34.6132C16.635 34.6132 15.7561 34.3024 15.4397 34.0141C14.9925 33.6063 14.3006 33.6387 13.8942 34.0844C13.4864 34.5316 13.5188 35.2235 13.9645 35.6299C14.7689 36.364 16.2089 36.8013 17.8177 36.8013C19.4264 36.8013 20.8678 36.364 21.6708 35.6299C22.1166 35.2235 22.1489 34.5302 21.7411 34.0844Z" fill="white"/>
<path d="M22.793 28.9531C21.7678 28.2879 19.9088 27.8914 17.8177 27.8914C15.7266 27.8914 13.8661 28.2879 12.8424 28.9531C12.3361 29.2821 12.1913 29.96 12.5203 30.4662C12.7299 30.7882 13.0814 30.964 13.4386 30.964C13.6425 30.964 13.8492 30.9064 14.0335 30.7868C14.5777 30.4339 15.9586 30.0781 17.8177 30.0781C19.6767 30.0781 21.0577 30.4339 21.6019 30.7868C22.1095 31.1159 22.7874 30.9725 23.115 30.4648C23.4441 29.96 23.3006 29.2821 22.793 28.9531Z" fill="white"/>
<path d="M34.7658 34.0844C34.358 33.6373 33.6661 33.6063 33.2203 34.0141C32.9039 34.3024 32.025 34.6132 30.8423 34.6132C29.6597 34.6132 28.7808 34.3024 28.4644 34.0141C28.0186 33.6063 27.3253 33.6387 26.9189 34.0844C26.5111 34.5316 26.5434 35.2235 26.9892 35.6299C27.7936 36.364 29.2336 36.8013 30.8423 36.8013C32.4511 36.8013 33.8911 36.364 34.6955 35.6299C35.1427 35.2235 35.1736 34.5302 34.7658 34.0844Z" fill="white"/>
<path d="M35.8191 28.9531C34.7939 28.2879 32.9348 27.8914 30.8423 27.8914C28.7513 27.8914 26.8908 28.2879 25.867 28.9531C25.3594 29.2821 25.2159 29.96 25.545 30.4662C25.8741 30.9725 26.5519 31.1173 27.0595 30.7882C27.6038 30.4353 28.9847 30.0795 30.8438 30.0795C32.7028 30.0795 34.0837 30.4353 34.628 30.7882C34.8122 30.9078 35.0189 30.9654 35.2228 30.9654C35.5814 30.9654 35.9316 30.7896 36.1411 30.4676C36.4702 29.96 36.3253 29.2821 35.8191 28.9531Z" fill="white"/>
<path d="M45.5363 64.7C43.6041 63.0575 40.9688 62.1533 38.1169 62.1533C34.3636 62.1533 31.7677 61.3166 30.675 60.882V55.9208C36.3014 53.8803 40.6749 49.2088 42.3019 43.3995C45.8245 42.958 48.5625 39.9388 48.5625 36.305C48.5625 32.9455 46.1859 30.0584 42.9909 29.33V26.907C44.2552 22.4759 44.1764 18.1236 43.8825 15.2394C43.7152 13.5913 43.462 12.2356 43.2792 11.3891C43.1091 10.603 42.9994 10.1783 42.9178 9.93219C42.9009 9.8675 42.8798 9.80422 42.8503 9.74234C41.6381 7.17312 39.4823 4.98359 36.7233 3.3425C36.667 3.30172 36.608 3.26797 36.5461 3.23844C33.1556 1.27109 28.8792 0.125 24.33 0.125C20.7483 0.125 17.2453 0.83375 14.2008 2.17391C13.6481 2.41719 13.3964 3.06266 13.6397 3.61672C13.883 4.16937 14.5284 4.42109 15.0825 4.17781C17.8514 2.95859 21.0492 2.31453 24.33 2.31453C27.9595 2.31453 31.3824 3.095 34.2202 4.46187C32.8899 5.60656 31.3064 6.70906 29.4136 7.80734C28.8905 8.11109 28.7133 8.78047 29.017 9.30359C29.2195 9.65375 29.5866 9.84922 29.9648 9.84922C30.1519 9.84922 30.3403 9.80141 30.5133 9.70156C32.8055 8.37125 34.6856 7.02406 36.2381 5.59953C38.1366 6.84266 39.6483 8.39094 40.6102 10.1642C40.5722 10.2247 40.5328 10.2837 40.4934 10.3442C40.4667 10.3836 40.44 10.4244 40.4133 10.4637C38.017 13.9541 32.932 17.2981 25.5759 20.2217C25.5324 20.2386 25.4874 20.2555 25.4438 20.2738C25.2834 20.337 25.1231 20.4003 24.9614 20.4622C17.6447 23.2887 10.1817 24.9495 7.55204 25.4881C6.95438 23.0652 6.76594 20.6745 6.78704 18.5384C7.69688 18.3556 8.60251 18.0941 9.48704 17.8395C10.1803 17.6384 10.8975 17.4317 11.5894 17.2714C11.6006 17.2686 11.6119 17.2658 11.6231 17.263C16.1217 16.0719 20.5486 14.4631 25.9781 12.0458C26.5308 11.7997 26.7783 11.1528 26.5322 10.6016C26.2861 10.0503 25.6392 9.80141 25.088 10.0475C19.7766 12.4128 15.4552 13.985 11.0803 15.1438C10.3364 15.3167 9.59532 15.5305 8.87954 15.7372C8.19469 15.9355 7.53376 16.1253 6.88688 16.2772C7.12454 13.22 7.70673 11.0234 7.82344 10.603C8.58141 9.03219 9.77954 7.60484 11.3869 6.35609C11.865 5.98625 11.9508 5.29859 11.5809 4.82047C11.2097 4.34375 10.5234 4.25656 10.0453 4.62641C8.13704 6.10859 6.7111 7.82984 5.80688 9.74516C5.78438 9.79438 5.76469 9.84359 5.74923 9.89563C5.64516 10.2402 3.23626 18.3978 5.66626 26.9112V29.3342C2.47407 30.0584 0.0960999 32.9469 0.0960999 36.3064C0.0960999 39.9402 2.83547 42.9594 6.35672 43.4009C7.98376 49.2102 12.3586 53.8817 17.9836 55.9222V60.8834C16.8881 61.3194 14.2936 62.1561 10.5417 62.1561C7.68985 62.1561 5.05594 63.0603 3.12235 64.7028C1.17188 66.3594 0.0960999 68.608 0.0960999 71.0309C0.0960999 71.6356 0.585475 72.125 1.19016 72.125H47.4698C48.0745 72.125 48.5639 71.6356 48.5639 71.0309C48.5639 68.608 47.4881 66.3594 45.5363 64.7ZM42.8109 40.9611C42.9291 40.1033 42.9909 39.237 42.9909 38.3722V31.6025C44.9597 32.2691 46.3744 34.1478 46.3744 36.3064C46.3744 38.5578 44.8598 40.4703 42.7969 41.0722C42.8025 41.0356 42.8067 40.9977 42.8109 40.9611ZM2.28422 36.3064C2.28422 34.1478 3.69891 32.2691 5.66766 31.6025V38.3722C5.66766 39.2384 5.72954 40.1033 5.84766 40.9611C5.85329 40.9977 5.8561 41.0356 5.86172 41.0722C3.79876 40.4689 2.28422 38.5578 2.28422 36.3064ZM41.018 13.2298C41.0433 13.2017 41.0686 13.1722 41.0939 13.1441C41.1628 13.0653 41.2303 12.9866 41.2964 12.9078C41.3091 12.8923 41.3231 12.8769 41.3358 12.8628C41.8322 15.6289 42.3384 20.4931 41.1066 25.4867C38.9283 25.0409 33.4284 23.8288 27.4603 21.8192C33.7139 19.2317 38.2519 16.3573 41.018 13.2298ZM8.12016 41.3127C8.11876 41.3014 8.11594 41.2888 8.11313 41.2775C7.94016 40.3198 7.85719 39.3453 7.85719 38.3722V30.268V27.658C7.86704 27.6566 7.87829 27.6538 7.88954 27.6509C9.58407 27.3134 11.2688 26.9183 12.945 26.4992C14.7113 26.0577 16.4677 25.5795 18.2128 25.0606C19.3561 24.7203 20.4952 24.3631 21.6258 23.9848C21.6469 23.9778 21.6666 23.9708 21.6877 23.9638H26.9752C33.0769 26.0042 38.6808 27.2277 40.8042 27.6566V30.2666V38.3708C40.8042 39.3425 40.7184 40.3198 40.5469 41.2775C40.5455 41.2888 40.5427 41.3 40.5413 41.3112C39.4219 47.5044 34.8277 52.5036 28.8581 54.2122C28.8483 54.215 28.8384 54.2178 28.8286 54.2206C27.3675 54.6312 25.8488 54.845 24.33 54.845C22.8155 54.845 21.2855 54.6411 19.83 54.2206C19.823 54.2192 19.8174 54.2164 19.8103 54.215C13.838 52.5078 9.24094 47.5072 8.12016 41.3127ZM2.38829 69.9355C2.64844 68.5841 3.39094 67.3452 4.53985 66.3678C6.07688 65.0614 8.20876 64.3428 10.5417 64.3428C16.1738 64.3428 19.4545 62.6342 19.5909 62.5611C19.9481 62.3713 20.1717 62 20.1717 61.595C20.1717 61.595 20.1717 56.5677 20.1717 56.5691C20.1745 56.9867 24.1078 57.0345 24.3286 57.0345C25.7264 57.0345 27.1214 56.8798 28.4855 56.5691V61.5964C28.4855 62.0014 28.7091 62.3727 29.0663 62.5625C29.2027 62.6356 32.4834 64.3442 38.1155 64.3442C40.4484 64.3442 42.5803 65.0628 44.1174 66.3692C45.2677 67.3466 46.0088 68.5855 46.2689 69.9369H2.38829V69.9355Z" fill="white"/>
</g>
<defs>
<clipPath id="clip0_17533_3">
<rect width="49" height="72" fill="white" transform="translate(0 0.125)"/>
</clipPath>
</defs>
</svg>
