<svg width="68" height="80" viewBox="0 0 68 80" fill="none" xmlns="http://www.w3.org/2000/svg">
<g clip-path="url(#clip0_1_102)">
<path d="M13.7516 31.6366C14.6032 31.6366 15.2936 30.9462 15.2936 30.0945C15.2936 29.2429 14.6032 28.5525 13.7516 28.5525C12.8999 28.5525 12.2095 29.2429 12.2095 30.0945C12.2095 30.9462 12.8999 31.6366 13.7516 31.6366Z" fill="#7A9CA5"/>
<path d="M65.9071 28.4777C64.9365 27.3624 63.5011 26.7239 61.9697 26.7239H49.4961V24.0832C49.4961 20.2159 46.3496 17.0693 42.4822 17.0693H41.2739V16.8727C41.2739 14.1086 39.0827 11.8489 36.346 11.7346V9.10456C37.4919 8.83638 38.4869 8.45087 39.3235 7.94345C40.8777 7.00024 41.5512 5.86046 41.8422 5.07115C42.4914 3.30815 41.8087 1.28763 40.288 0.472419C39.8553 0.24233 39.3966 0.125 38.9227 0.125C37.8911 0.125 36.922 0.697937 36.3369 1.63505C36.0413 1.82857 34.9106 2.41218 32.0292 2.41218H24.8507C21.2043 2.41218 18.9385 4.90506 18.9385 8.92019C18.9385 10.8874 20.3556 12.4889 22.0988 12.4889C23.6515 12.4889 24.9467 11.218 25.2103 9.5495H28.6586V11.7346C25.9219 11.8489 23.7307 14.1086 23.7307 16.8727V17.0693H22.5209C18.6535 17.0693 15.507 20.2159 15.507 24.0832V24.1868H10.9875C8.98221 24.1868 7.35026 25.8188 7.35026 27.8241V34.6978C6.25467 35.6349 5.55831 37.0246 5.55831 38.5773V40.8431C3.47989 42.3273 2.06431 44.6983 1.88298 47.4182C1.80526 48.6113 1.75041 49.876 1.72146 51.1743C1.70774 51.831 2.22735 52.375 2.88409 52.3902C3.53931 52.4055 4.08482 51.8843 4.09854 51.2276C4.12596 49.9644 4.17929 48.7362 4.25548 47.5751C4.41396 45.1737 5.89506 43.1455 7.95214 42.1856C7.96738 42.1795 7.9811 42.1718 7.99481 42.1658C8.81764 41.7924 9.72886 41.5913 10.6324 41.5913H16.8677C17.7743 41.5913 18.681 41.7924 19.5053 42.1658C19.5206 42.1718 19.5343 42.1795 19.548 42.1856C21.6279 43.1501 23.0923 45.2849 23.2447 47.5751C23.365 49.3808 23.4245 51.2367 23.4245 53.0881C23.4245 53.9643 23.4001 54.8389 23.3818 55.7136C23.3803 55.744 23.3803 55.7745 23.3787 55.8065C23.3681 56.1159 22.5072 56.9692 22.3273 57.2892C22.0317 57.8148 21.7925 58.368 21.6157 58.944C21.2135 60.2514 21.1281 61.6304 21.1038 62.9896C21.0687 65.0253 21.2714 67.0702 21.7209 69.0572C21.7224 69.0664 21.7239 69.074 21.727 69.0831C20.9758 71.1493 19.0436 72.5162 16.8281 72.5162H10.6721C8.22338 72.5162 6.07791 70.7699 5.56745 68.3639C4.75833 64.5469 4.27377 60.3611 4.12596 55.9208C4.10463 55.2641 3.5515 54.749 2.89781 54.7719C2.24106 54.7932 1.72603 55.3433 1.74888 56C1.90126 60.579 2.40411 64.9049 3.24065 68.8576C3.98121 72.3562 7.10798 74.8963 10.6721 74.8963H16.8311C19.1472 74.8963 21.25 73.8708 22.6565 72.1809C23.4077 74.1816 24.4195 76.0376 25.6705 77.6772C25.896 77.9713 26.245 78.145 26.6152 78.145H49.0588C49.4291 78.145 49.7795 77.9713 50.0035 77.6772C50.3662 77.2033 50.7075 76.7096 51.029 76.2022H61.2551C61.9118 76.2022 62.4451 75.6704 62.4451 75.0121V65.1929L65.2687 44.7958C65.3586 44.1451 64.9045 43.5448 64.2538 43.4549C63.6017 43.365 63.0028 43.819 62.9129 44.4697L60.6547 60.7862H54.4377C54.3569 60.0045 54.1863 59.2335 53.9105 58.4975C53.0633 56.2393 51.3292 54.458 49.1548 53.5285L49.1121 53.2161L46.1499 31.8163C46.1393 31.7401 46.1332 31.6624 46.1301 31.5862C46.1301 31.5817 46.1301 31.5786 46.1301 31.574C46.1088 30.8045 46.5217 30.1112 47.1221 29.6556C47.6051 29.2899 48.239 29.104 48.8409 29.104H61.9712C62.8139 29.104 63.5956 29.4453 64.1152 30.0411C64.5571 30.5485 64.7521 31.1794 64.6637 31.8148L63.5712 39.7094C63.4813 40.3601 63.9354 40.9605 64.586 41.0504C65.2367 41.1403 65.837 40.6862 65.9269 40.0355L67.0195 32.1394C67.2023 30.8122 66.8077 29.5109 65.9071 28.4777ZM24.8492 7.16938C24.3006 7.16938 23.6195 7.23185 23.2248 7.66613C22.9155 8.00593 22.879 8.48287 22.879 8.92019C22.879 9.62112 22.4675 10.1103 22.0973 10.1103C21.727 10.1103 21.3156 9.62112 21.3156 8.92019C21.3156 5.32714 23.5296 4.7923 24.8492 4.7923H32.0277C33.137 4.7923 34.2889 4.72221 35.3906 4.4845C36.3399 4.27879 37.402 3.97404 38.0999 3.26091C38.3543 3.00035 38.4778 2.50665 38.9212 2.50665C39.0004 2.50665 39.0781 2.52798 39.1589 2.57065C39.5794 2.79616 39.8598 3.56262 39.6054 4.25136C39.4012 4.80602 38.5159 6.37397 34.9883 6.953C34.9792 6.95453 34.9716 6.95453 34.9624 6.95605C33.9933 7.11452 33.009 7.1709 32.0277 7.1709H29.8471L24.8492 7.16938ZM33.9644 9.47027V11.727H31.0372V9.54798C31.0403 9.59979 33.9644 9.49465 33.9644 9.47027ZM28.8735 14.1056H29.8471H35.1544H36.1281C37.6519 14.1056 38.8922 15.3459 38.8922 16.8697V17.0663H26.1093V16.8697C26.1093 15.3459 27.3497 14.1056 28.8735 14.1056ZM9.73038 27.8286C9.73038 27.8271 9.73038 27.8241 9.73038 27.8225C9.73038 27.1292 10.2942 26.5654 10.9875 26.5654H16.5142C16.5416 26.5654 16.5675 26.5685 16.5934 26.57C16.5995 26.57 16.6041 26.5715 16.6086 26.5715C18.0029 26.6736 17.7713 28.2964 17.7713 29.2716C17.7713 30.4556 17.7713 31.6396 17.7713 32.8235C17.7713 33.0689 17.7713 33.3127 17.7713 33.558C17.465 33.5016 17.1526 33.4727 16.8403 33.4727C16.8403 33.4727 10.6629 33.4727 10.6599 33.4727C10.3719 33.4727 10.0351 33.5565 9.7319 33.5473C9.642 31.6533 9.73038 29.7272 9.73038 27.8286ZM19.5648 39.6348C19.5648 39.2889 17.2029 39.2096 16.8677 39.2096H10.6355C9.72276 39.2096 8.80698 39.3544 7.93843 39.6348C7.93843 39.6348 7.93843 38.5758 7.93843 38.5742C7.93843 37.1038 9.19097 35.8497 10.6629 35.8497H16.8433C17.7378 35.8497 18.6017 36.313 19.1015 37.0535C19.6227 37.8261 19.5648 38.7464 19.5648 39.6348ZM52.8637 72.6975C52.8819 72.6381 52.8957 72.5924 52.9063 72.5634C53.3193 71.3962 53.688 70.2077 53.9577 68.9978C54.3844 67.087 54.5931 65.1198 54.5703 63.1618H60.0665V65.1076V73.819C60.0665 73.819 52.3319 73.819 52.3288 73.819C52.533 73.8205 52.7585 73.0449 52.8637 72.6975ZM51.5867 59.1085H45.9701C45.3134 59.1085 44.7801 59.6403 44.7801 60.2986C44.7801 60.9569 45.3119 61.4887 45.9701 61.4887H52.1109C52.1155 61.5389 52.1185 61.5907 52.1231 61.641C52.4934 66.5689 51.3506 71.707 48.4584 75.7648H27.2171C25.7589 73.7199 24.7029 71.32 24.0919 68.7296C23.5357 66.3693 23.362 63.9053 23.5631 61.4887H41.2114C41.8681 61.4887 42.4015 60.9569 42.4015 60.2986C42.4015 59.6403 41.8697 59.1085 41.2114 59.1085H24.0843C24.3921 58.3786 24.837 57.7097 25.4038 57.1307C26.5909 55.9178 28.2868 55.1955 30.0041 55.1955H45.67C46.2139 55.1955 46.7503 55.2656 47.2669 55.4012C49.1716 55.8964 50.8066 57.2587 51.5867 59.1085ZM47.116 27.0058C47.116 26.9982 45.6974 27.7418 45.5618 27.8484C43.2273 29.709 43.8292 32.4274 44.1843 34.9949L46.6589 52.8717C46.6513 52.8702 46.6436 52.8702 46.6345 52.8702C46.4989 52.855 46.3617 52.8443 46.2246 52.8352C46.1941 52.8337 46.1652 52.8306 46.1347 52.8291C45.9808 52.8215 45.8254 52.8154 45.6684 52.8154H30.0041C29.2498 52.8154 28.4971 52.9129 27.7672 53.1034C27.4122 53.1963 27.0617 53.3106 26.7219 53.4447C26.5969 53.495 25.8031 53.7708 25.8015 53.8744C25.8046 53.6092 25.8046 53.3472 25.8046 53.0851C25.8046 51.1804 25.7421 49.2726 25.6187 47.4151C25.5288 46.0605 25.1143 44.7242 24.4301 43.5524C24.1193 43.0206 23.7521 42.5208 23.3376 42.0652C23.1228 41.829 22.8957 41.605 22.6565 41.3947C22.5666 41.3155 21.9434 40.9132 21.9434 40.8294V38.5727C21.9434 37.1053 21.2805 35.6501 20.1514 34.6902V27.821C20.1514 27.7357 20.1468 27.6519 20.1407 27.5681C20.1392 27.5513 20.1377 27.533 20.1362 27.5163C20.0204 26.1281 19.1229 24.9594 17.8856 24.4535V24.0802C17.8856 21.5248 19.9655 19.4449 22.5209 19.4449H24.9193H40.0808H42.4792C45.0345 19.4449 47.1145 21.5248 47.1145 24.0802C47.116 24.0817 47.116 27.0058 47.116 27.0058Z" fill="#7A9CA5"/>
</g>
<defs>
<clipPath id="clip0_1_102">
<rect width="67" height="79" fill="white" transform="translate(0.984619 0.125)"/>
</clipPath>
</defs>
</svg>
