<svg width="74" height="75" viewBox="0 0 74 75" fill="none" xmlns="http://www.w3.org/2000/svg">
<g clip-path="url(#clip0_1_96)">
<path d="M11.8894 58.4941C11.6695 59.0523 11.1355 59.3918 10.5696 59.3918C10.3958 59.3918 10.2184 59.3598 10.0463 59.2905C4.61628 57.1342 1.32206 54.3629 0.516689 51.2786C0.318008 50.5196 0.772138 49.741 1.53139 49.5437C2.29064 49.3463 3.06585 49.7996 3.26276 50.5605C3.82155 52.7008 6.60311 54.8642 11.0947 56.6489C11.822 56.9369 12.1786 57.7635 11.8894 58.4941ZM16.7128 43.6063C16.9807 43.8339 17.3071 43.9458 17.6317 43.9458C18.0326 43.9458 18.4318 43.7752 18.712 43.4463C19.2212 42.849 19.1484 41.9513 18.5524 41.4411C17.8481 40.8403 17.1598 40.2039 16.5053 39.5479C10.2681 33.2977 7.00224 25.3534 7.99211 19.0214C10.653 18.6037 13.5978 18.9414 16.5815 19.9405C16.7075 20.0062 16.8459 20.0542 16.9895 20.0809C20.9614 21.4888 24.9847 24.0539 28.4759 27.5524C29.354 28.4323 30.1913 29.3673 30.9629 30.3273C31.4543 30.9388 32.3484 31.0348 32.9586 30.5424C33.5689 30.05 33.6647 29.154 33.1733 28.5425C32.3378 27.5026 31.433 26.4929 30.4822 25.5401C26.8953 21.9457 22.7584 19.2525 18.5985 17.6633C18.4974 15.091 18.932 12.7428 19.8527 10.8922C22.1961 11.4024 24.6211 12.8316 26.8013 14.995C26.4979 16.2092 26.2549 17.4642 26.0793 18.7512C25.9728 19.5298 26.5157 20.2462 27.2926 20.3529C28.0696 20.4595 28.7845 19.9156 28.891 19.137C29.8454 12.1686 32.8646 6.31833 37.0405 3.26255C41.2164 6.31833 44.2356 12.1668 45.19 19.1334C45.2964 19.912 46.0113 20.456 46.7883 20.3493C47.5653 20.2427 48.1082 19.5245 48.0017 18.7477C47.8261 17.4606 47.5831 16.2074 47.2797 14.995C49.4599 12.8316 51.8867 11.4024 54.2283 10.8922C55.1472 12.7428 55.5836 15.091 55.4825 17.6633C51.3225 19.2543 47.1857 21.9474 43.5988 25.5401C42.6479 26.4929 41.7432 27.5026 40.9077 28.5425C40.4163 29.154 40.5121 30.05 41.1223 30.5424C41.7326 31.0348 42.6267 30.9388 43.118 30.3273C43.8897 29.3673 44.727 28.4341 45.6051 27.5524C49.0962 24.0539 53.1178 21.487 57.0897 20.0809C57.2351 20.0542 57.3735 20.0062 57.4994 19.9405C60.4832 18.9432 63.428 18.6037 66.0889 19.0214C67.0788 25.3552 63.8129 33.2995 57.5757 39.5479C56.9211 40.2039 56.2328 40.8403 55.5286 41.4411C54.9325 41.9495 54.8598 42.8473 55.3671 43.4463C55.8745 44.0436 56.7703 44.1165 57.3682 43.6081C58.1292 42.9592 58.8742 42.2695 59.5821 41.5602C66.7914 34.3376 70.3623 24.8894 68.6842 17.4926C68.5636 16.9593 68.1485 16.5434 67.6145 16.4207C64.746 15.7665 61.5689 15.907 58.3314 16.7478C58.3013 13.6156 57.5562 10.7642 56.1761 8.56884C55.8851 8.10665 55.3547 7.85244 54.8119 7.91466C51.9612 8.2453 49.0129 9.66742 46.3626 11.9695C44.5301 6.8374 41.5268 2.69726 37.7944 0.343651C37.3332 0.0521163 36.7442 0.0521163 36.283 0.343651C32.5506 2.69726 29.5473 6.8374 27.7148 11.9695C25.0646 9.66742 22.1198 8.2453 19.2655 7.91466C18.7227 7.85244 18.1941 8.10665 17.9031 8.56884C16.5248 10.7642 15.7815 13.6156 15.7513 16.7478C12.5156 15.907 9.33676 15.7665 6.46829 16.4207C5.9361 16.5416 5.521 16.9593 5.39859 17.4926C3.71867 24.8894 7.2914 34.3359 14.5007 41.5602C15.2067 42.2677 15.9518 42.9557 16.7128 43.6063ZM16.0405 54.7273C16.2995 53.986 15.9092 53.1754 15.1695 52.9159C10.8872 51.4155 8.33093 49.5188 8.33093 47.8442C8.33093 46.7616 9.44497 45.5386 11.4672 44.3991C12.1502 44.0152 12.3932 43.1477 12.0083 42.4633C11.6251 41.7789 10.7594 41.5353 10.0765 41.9211C7.03418 43.6348 5.49261 45.6275 5.49261 47.846C5.49261 50.9178 8.51542 53.5985 14.2328 55.6037C14.3872 55.6588 14.545 55.6837 14.7012 55.6837C15.2883 55.6819 15.8365 55.3139 16.0405 54.7273ZM58.6312 53.0154C57.8897 53.2678 57.4923 54.0749 57.7442 54.8197C57.9447 55.4117 58.4964 55.785 59.0871 55.785C59.2379 55.785 59.3922 55.7601 59.543 55.7085C65.4627 53.6945 68.5937 50.9747 68.5937 47.8442C68.5937 45.7057 67.1568 43.7734 64.3238 42.1006C63.6479 41.7024 62.7787 41.9264 62.3813 42.6037C61.984 43.281 62.2075 44.1521 62.8834 44.5502C64.7354 45.6435 65.7554 46.8132 65.7554 47.8424C65.7536 49.5383 63.0253 51.5204 58.6312 53.0154ZM51.1168 63.4093C51.1168 64.8492 49.9477 66.0225 48.5091 66.0225C47.725 66.0225 47.0899 66.6589 47.0899 67.4446C47.0899 68.2303 47.725 68.8667 48.5091 68.8667C51.5124 68.8667 53.9551 66.4189 53.9551 63.4093C53.9551 62.6236 53.32 61.9872 52.5359 61.9872C51.7518 61.9872 51.1168 62.6236 51.1168 63.4093ZM72.4077 49.5437C71.6502 49.3463 70.8732 49.7996 70.6763 50.5605C70.1175 52.7025 67.3378 54.8642 62.8461 56.6489C62.117 56.9387 61.7605 57.7653 62.0496 58.4959C62.2696 59.0541 62.8053 59.3936 63.3694 59.3936C63.5433 59.3936 63.7207 59.3616 63.8927 59.2923C69.3228 57.1342 72.6188 54.3629 73.4242 51.2786C73.6211 50.5196 73.1652 49.7428 72.4077 49.5437ZM47.1892 50.1605C47.1892 50.9356 46.5613 51.5648 45.7878 51.5648C45.0037 51.5648 44.3687 52.2012 44.3687 52.987C44.3687 53.7727 45.0037 54.4091 45.7878 54.4091C48.1259 54.4091 50.0276 52.5034 50.0276 50.1605C50.0276 49.3748 49.3925 48.7384 48.6084 48.7384C47.8243 48.7384 47.1892 49.3766 47.1892 50.1605ZM43.134 41.0785H43.5048C44.2888 41.0785 44.9239 40.4421 44.9239 39.6564C44.9239 38.8707 44.2888 38.2343 43.5048 38.2343H43.134C42.3499 38.2343 41.7148 38.8707 41.7148 39.6564C41.7148 40.4421 42.3517 41.0785 43.134 41.0785ZM57.7939 57.3831C59.0942 59.191 59.7825 61.3224 59.7825 63.5462C59.7825 69.3787 55.0478 74.125 49.2257 74.125H24.8606C19.0402 74.125 14.3038 69.3805 14.3038 63.548C14.3038 59.678 16.4432 56.137 19.764 54.2918C19.2992 53.2394 19.042 52.0733 19.042 50.8502C19.042 47.1296 21.428 43.9565 24.747 42.7868C24.0144 41.7238 23.5833 40.435 23.5833 39.0466C23.5833 35.4113 26.5352 32.4533 30.1629 32.4533H43.9234C47.5511 32.4533 50.503 35.4113 50.503 39.0466C50.503 42.6819 47.5511 45.6399 43.9234 45.6399H30.1629C29.2795 45.6399 28.4368 45.464 27.6652 45.1475C27.6332 45.1493 27.5995 45.1511 27.5676 45.1511C24.4313 45.1511 21.8803 47.7073 21.8803 50.8502C21.8803 52.0253 22.2369 53.1203 22.8489 54.0287C22.8968 54.0873 22.9411 54.1496 22.9802 54.2153C24.0162 55.6286 25.6872 56.5494 27.5676 56.5494H46.5187C49.655 56.5494 52.206 53.9931 52.206 50.8502C52.206 49.1579 51.4538 47.5598 50.1411 46.4665C49.538 45.9653 49.4564 45.0675 49.9566 44.4631C50.4569 43.8587 51.3527 43.777 51.9559 44.2783C53.9178 45.9137 55.0443 48.3082 55.0443 50.8485C55.0443 55.5592 51.2197 59.3918 46.5187 59.3918H27.5676C25.1107 59.3918 22.8932 58.3448 21.3357 56.672C18.7937 57.9893 17.1421 60.6415 17.1421 63.5462C17.1421 67.8108 20.6049 71.2808 24.8606 71.2808H49.2257C53.4814 71.2808 56.9442 67.8108 56.9442 63.548C56.9442 61.925 56.4422 60.3695 55.4913 59.0488C55.0336 58.4124 55.1773 57.5235 55.8124 57.0631C56.4475 56.6027 57.3345 56.7467 57.7939 57.3831ZM26.4216 39.0466C26.4216 41.114 28.0998 42.7957 30.1629 42.7957H43.9234C45.9865 42.7957 47.6647 41.114 47.6647 39.0466C47.6647 36.9792 45.9865 35.2976 43.9234 35.2976H30.1629C28.0998 35.2976 26.4216 36.9792 26.4216 39.0466Z" fill="#7A9CA5"/>
</g>
<defs>
<clipPath id="clip0_1_96">
<rect width="73" height="74" fill="white" transform="translate(0.470032 0.125)"/>
</clipPath>
</defs>
</svg>
